<svg version="1.2" xmlns="http://www.w3.org/2000/svg" viewBox="0 0 1000 150" width="1000" height="150">
	<title>&lt;Path&gt;</title>
	<style>
		.s0 { fill: #ffffff } 
	</style>
	<path id="&lt;Path&gt;" class="s0" d="m918.3 37.2c-9-1.9-18.2-3.3-27.5-4.5-21.5-2.5-43.5-3.5-65.2-3.2-21.8 0.5-43.6 3.1-64.9 7.8-7.8 1.8-15.8 3.6-23.5 5.7-9.6 2.6-19.1 5.4-28.4 8.8-4.6 1.6-9.1 3.3-13.6 4.9-5.6 2-8.6 2.4-7.3 1.1 1.9-1.9 5.7-3.2 9-4.6 5.8-2.5 11.5-5 17.4-7.3 37.8-14.4 78.2-21.7 118.6-22.4 8.9-0.2 17.7-0.1 26.5 0.1 30.8 1.3 62 4.4 91.9 14.6 7.4 2.7 14.7 5.7 21.6 9.7 3.6 1.8 6.9 4.2 10.2 6.5 3.3 2.3 6.6 5.3 9.1 8.7 5.2 6.8 8.3 15.6 7.7 24.4-0.5 8.8-4.8 17.3-10.9 23.2-8.2 8.2-18.9 12.5-29.1 15.4-10.3 2.9-20.6 4.9-31 6.3-20.9 2.8-41.9 3.2-62.7 2.4-40.4-1.9-80.5-7.1-120.1-14.7-44.6-8.3-88.5-19.2-132.2-30.7l-25.5-6.8-72.6-19.2c-12.1-3.1-24.2-6.4-36.3-9.3-39.5-9.6-79.3-17.9-119.5-23.5-13.2-2.1-26.6-3.1-39.9-4.7-6.7-0.6-13.4-0.9-20-1.4-6.7-0.5-13.4-1-20.1-1-8.5-0.2-17.1-0.6-25.6-0.5l-25.7 0.5-25.6 1.9c-4.2 0.2-8.5 0.7-12.7 1.3l-12.7 1.7c-4 0.6-8 0.9-12 1.8l-11.8 2.3c-7.9 1.6-15.9 3-23.6 5.3l-20.2 5.5-19.7 6.9c-3.3 1.2-6.6 2.1-9.8 3.6l-9.6 4.2-9.5 4.2c-3.2 1.5-6.4 2.7-9.4 4.5q-9.9 5.4-19.7 10.2c-3.3 1.5-6.4 3.3-9.4 5.1q-4.7 2.6-9.3 5.1c-3 1.7-6.1 3.2-8.8 4.5-5.6 2.5-6.6 0.8-1.8-3.5 2.3-2.1 5.2-4.4 8.1-6.5 4-2.9 8.2-5.8 12.4-8.7 9-5.2 18.2-10.1 27.3-15.2l28.6-12.8 17-6c5.6-2 11.2-4.3 17-5.7l14.6-4.1c4.9-1.4 9.8-2.8 14.7-3.7l14.9-3.1c4.9-1 9.9-2 14.9-2.6 43.2-6.5 87.1-7 130.5-4.1 8.8 0.6 17.6 1.1 26.3 2.1 8.8 1 17.6 1.6 26.3 2.9l26.2 3.7 26 4.5c26 5 51.9 10.6 77.5 17 14 3.4 28 6.9 42 10.5 40.7 10.7 81.2 22 121.8 32.3 35.8 9.1 71.7 17.5 107.9 24 26.5 4.8 53.1 8.4 79.7 10.7l5.6 0.4c37.2 3.3 74.9 3.9 110.9-4.7 6.7-1.7 13.2-3.7 19-6.7 5.8-3 11-7.1 14.5-12.2 3.4-5.1 5.2-11.2 4.5-17.3-0.5-6-3.3-11.8-7.4-16.5l-2.3-2.4-2.5-2.1-5.7-4c-3.9-2.4-7.9-4.9-12.2-6.8-8.5-4.1-17.4-7.4-26.6-9.9-2.7-0.8-5.4-1.5-8.1-2.1q-4-1.1-8.1-1.9z"/>
</svg>